# xmcd
#
# Track frame offsets:
#	150
#	19803
#	32560
#	48227
#	59240
#	76078
#	91267
#	104021
#	120002
#	133254
#	156422
#	171426
#	187836
#	198105
#	213542
#	226654
#	241079
#	265197
#
# Disc length: 3747 seconds
#
# Revision: 1
# Processed by: cddbd v1.4PL0 Copyright (c) Steve Scherf et al.
# Submitted via: audiograbber 1.81.02
#
DISCID=ea0ea112
DTITLE=Clemens Otte and Co - The Great R&R-Show CD1
DYEAR=2001
DGENRE=Acoustic
TTITLE0=Hey Jude
TTITLE1=Not Fade Away
TTITLE2=It`s All Over Now
TTITLE3=Route 66
TTITLE4=When I Was Young
TTITLE5=Honky Tonk Woman
TTITLE6=To Love Somebody
TTITLE7=Dock Of The Bay
TTITLE8=Angelina
TTITLE9=Proud Mary
TTITLE10=Lay Down Sally
TTITLE11=I Shot The Sheriff
TTITLE12=New York Mining Disaster
TTITLE13=Heart Of Gold
TTITLE14=Paint It Black
TTITLE15=Hang On Sloopy
TTITLE16=Horse With No Name
TTITLE17=Help Me Make It Thru The Night
EXTD=
EXTT0=
EXTT1=
EXTT2=
EXTT3=
EXTT4=
EXTT5=
EXTT6=
EXTT7=
EXTT8=
EXTT9=
EXTT10=
EXTT11=
EXTT12=
EXTT13=
EXTT14=
EXTT15=
EXTT16=
EXTT17=
PLAYORDER=
